HIERARCHY
ROOT Hips
{
	OFFSET 0.0000 0.0000 0.0000
	CHANNELS 6 Xposition Yposition Zposition Zrotation Xrotation Yrotation
	JOINT Ab
	{
		OFFSET -0.0000 8.1305 -0.0000
		CHANNELS 3 Zrotation Xrotation Yrotation
		JOINT Chest
		{
			OFFSET -0.0000 26.2902 -0.0000
			CHANNELS 3 Zrotation Xrotation Yrotation
			JOINT Neck
			{
				OFFSET -0.0000 26.2902 0.0000
				CHANNELS 3 Zrotation Xrotation Yrotation
				JOINT Head
				{
					OFFSET -0.0000 10.8167 0.0000
					CHANNELS 3 Zrotation Xrotation Yrotation
					End Site
					{
						OFFSET -0.0000 16.7167 0.0000
					}
				}
			}
			JOINT LeftCollar
			{
				OFFSET -0.0000 26.2902 0.0000
				CHANNELS 3 Zrotation Xrotation Yrotation
				JOINT LeftShoulder
				{
					OFFSET 19.6667 -0.0000 0.0000
					CHANNELS 3 Zrotation Xrotation Yrotation
					JOINT LeftElbow
					{
						OFFSET 27.2190 0.0000 0.0000
						CHANNELS 3 Zrotation Xrotation Yrotation
						JOINT LeftWrist
						{
							OFFSET 30.7431 0.0000 0.0000
							CHANNELS 3 Zrotation Xrotation Yrotation
							End Site
							{
								OFFSET 0.0000 -14.7500 0.0000
							}
						}
					}
				}
			}
			JOINT RightCollar
			{
				OFFSET -0.0000 26.2902 0.0000
				CHANNELS 3 Zrotation Xrotation Yrotation
				JOINT RightShoulder
				{
					OFFSET -19.6667 0.0000 0.0000
					CHANNELS 3 Zrotation Xrotation Yrotation
					JOINT RightElbow
					{
						OFFSET -27.2190 0.0000 0.0000
						CHANNELS 3 Zrotation Xrotation Yrotation
						JOINT RightWrist
						{
							OFFSET -30.7431 0.0000 0.0000
							CHANNELS 3 Zrotation Xrotation Yrotation
							End Site
							{
								OFFSET -0.0000 -14.7500 0.0000
							}
						}
					}
				}
			}
		}
	}
	JOINT LeftHip
	{
		OFFSET 11.8000 0.0000 0.0000
		CHANNELS 3 Zrotation Xrotation Yrotation
		JOINT LeftKnee
		{
			OFFSET -0.0000 -39.7832 0.0000
			CHANNELS 3 Zrotation Xrotation Yrotation
			JOINT LeftAnkle
			{
				OFFSET -0.0000 -41.7317 0.0000
				CHANNELS 3 Zrotation Xrotation Yrotation
				End Site
				{
					OFFSET -0.0000 -4.9167 16.7167
				}
			}
		}
	}
	JOINT RightHip
	{
		OFFSET -11.8000 0.0000 0.0000
		CHANNELS 3 Zrotation Xrotation Yrotation
		JOINT RightKnee
		{
			OFFSET -0.0000 -39.7832 0.0000
			CHANNELS 3 Zrotation Xrotation Yrotation
			JOINT RightAnkle
			{
				OFFSET -0.0000 -41.7317 0.0000
				CHANNELS 3 Zrotation Xrotation Yrotation
				End Site
				{
					OFFSET -0.0000 -4.9167 16.7167
				}
			}
		}
	}
}
MOTION
Frames: 11
Frame Time: 0.010000
-10.1616 83.9357 75.3470 353.6261 347.0322 197.4793 359.8285 349.1505 356.9405 358.7248 19.4190 357.1747 344.1318 341.7265 351.0875 4.3939 12.4638 353.1673 337.7750 356.9569 15.2201 342.8454 55.6858 317.8738 20.8209 341.9107 278.5810 98.2882 349.4535 356.6446 22.9800 356.0856 341.0409 55.9888 38.0286 353.3409 329.7868 333.8559 80.7817 263.5520 346.9665 345.5041 357.9164 14.8153 1.7087 357.0557 6.6216 0.9117 345.9590 339.2182 8.6443 326.4904 318.8111 355.0128 21.7524 34.2485 6.2270 355.1140 344.5107 314.1169 
-9.9692 83.5856 74.2136 353.5530 346.6608 197.8101 0.0352 348.8117 356.8856 358.8196 19.6627 357.0858 343.8026 342.2883 350.9676 4.3265 11.4729 353.0700 337.8257 357.0043 15.0708 342.4714 56.0669 318.1721 21.0566 341.9766 279.6226 98.3208 349.1731 357.3098 23.1566 356.0891 341.2818 56.2009 38.3015 353.2772 329.3169 333.8738 79.6059 263.9939 346.9501 345.3626 358.1236 15.0262 1.9632 357.2521 6.8055 1.1942 344.7795 339.5306 7.9823 326.8146 319.4282 355.4070 21.3068 33.8824 6.3068 355.2883 345.5265 313.9449 
-9.8132 83.3025 73.1593 353.3332 346.0897 198.1585 0.0794 348.5038 356.8729 358.9333 19.7104 357.0532 343.4448 342.7936 350.8126 4.2277 10.5049 352.9399 337.7724 357.0295 14.9120 342.2430 56.4890 318.2777 21.2464 342.1719 280.8871 98.4476 348.9095 357.6708 23.4549 356.0620 341.4380 56.0287 38.5396 353.4212 328.8020 333.9774 78.2294 264.4439 346.5582 345.0625 358.0341 14.8631 1.9080 357.5274 7.2852 1.3237 343.9846 339.8272 7.9855 326.1404 319.3585 354.8492 22.1672 34.9123 5.8976 354.6573 345.1498 313.4068 
-9.6522 83.1041 72.1751 353.0899 345.5412 198.4346 0.0987 348.3147 356.8671 359.0617 19.7473 357.0239 343.2495 343.3427 350.7135 4.1120 9.2833 352.8447 337.6700 357.0488 14.7029 342.3324 56.9969 318.0172 21.5662 342.2153 282.3429 98.5801 348.8485 357.9379 23.8299 356.0144 341.6073 55.6759 38.8542 353.7390 328.2385 334.0789 76.7552 264.5615 346.2336 344.8930 357.8430 14.5730 1.7059 357.8623 7.9101 1.7503 343.2860 340.3384 7.7974 324.9801 318.7385 353.7950 23.6010 36.8278 6.1501 354.2202 345.1546 312.9873 
-9.3988 82.9285 71.1771 353.0517 345.2561 198.5908 0.3625 348.2686 356.9088 359.1525 20.0185 357.0246 343.0287 343.5807 350.5967 4.1361 8.2289 352.7587 337.3153 357.0164 14.5777 341.9925 56.5321 318.4913 21.4268 342.9592 283.2339 99.2229 349.1019 358.6192 24.3196 355.9432 341.7902 55.1142 39.5124 354.4419 327.4775 334.1544 74.9073 264.0739 346.2666 344.9444 358.0165 14.3804 1.4564 358.0198 8.8060 1.5853 342.7022 340.6494 8.3850 324.0896 317.8268 353.3688 25.9763 39.0183 5.9688 354.1030 343.8446 310.9934 
-9.0460 82.8085 70.1116 353.3507 345.2255 198.4962 0.9038 348.2426 357.0881 359.3231 20.5392 357.1258 342.6984 343.8715 350.4423 4.4653 6.9220 352.6350 337.1622 357.0178 14.5462 341.7775 56.4480 318.5248 21.3951 343.2408 284.4449 99.0467 348.6191 357.3982 24.8324 355.9002 342.0741 54.3222 40.3952 355.4087 326.4466 334.1751 72.5833 264.2362 345.6680 344.6597 358.6389 14.3461 1.9136 358.1121 9.6901 1.2145 341.7838 341.1657 8.7854 324.3576 316.9866 353.3492 27.3978 40.7532 4.6443 353.8821 343.5517 311.5557 
-8.7402 82.7806 69.1345 353.7160 344.9220 198.4798 1.4529 348.0476 357.1960 359.5344 20.9161 357.1349 343.1903 343.5239 350.5219 3.5701 6.7206 352.7540 337.1413 357.0468 14.3949 341.1359 56.7899 318.8227 21.8544 343.0613 285.6861 99.3507 348.7123 357.3630 25.1995 355.9023 342.4007 53.6962 41.3849 356.3260 325.0860 334.0845 69.9831 264.4579 345.4292 344.3908 359.1151 13.7600 2.1530 358.3119 10.9577 0.9881 340.8332 341.7216 9.4788 324.6288 316.1798 352.8742 28.0421 42.2023 3.1576 354.0534 342.9037 312.5759 
-8.4589 82.8060 68.1199 353.9746 344.6395 198.4387 1.8188 347.8862 357.2674 359.8532 21.2184 357.1064 343.1307 343.4999 350.5237 3.5487 6.3737 352.7879 337.0111 357.0515 14.3598 340.7992 56.9754 319.0790 22.1416 343.0803 286.6029 99.4597 348.8911 357.8672 25.4149 355.9402 342.6468 52.9084 42.5743 357.5328 323.7097 334.2118 67.2417 264.2672 345.5194 343.8710 359.4943 13.2036 2.4714 358.4572 12.2285 1.0928 339.9350 342.6024 9.6959 325.0939 315.7067 352.4217 28.1874 43.3866 2.3290 354.0391 342.3105 313.3483 
-8.2010 82.8913 67.0611 354.0475 344.4684 198.3938 1.9673 347.8720 357.3231 0.2304 21.4180 357.0771 342.8083 343.8952 350.5025 4.0371 5.8481 352.7534 337.0809 357.0778 14.3454 340.1318 57.4844 319.5221 22.6795 342.8234 287.4547 99.1823 348.8328 358.4260 25.5354 355.9914 342.8572 52.1058 43.9375 358.7273 322.2053 334.3516 64.4556 263.7368 345.8802 343.3369 359.7529 12.7814 2.7492 358.5172 13.4806 1.6591 339.4301 343.8529 9.5880 325.7036 315.6908 352.1459 28.0307 44.2988 2.5432 353.4553 341.9439 313.3945 
-7.9688 83.0477 66.0144 353.9940 344.3227 198.4392 2.0448 347.9759 357.3170 0.4640 21.4709 357.0183 342.8200 344.3058 350.5429 4.2623 5.5824 352.7251 337.4211 357.1307 14.4240 339.8378 58.4560 319.3887 23.5466 342.2752 288.4776 98.8926 348.6114 359.0230 25.7433 356.0167 343.0879 51.2714 45.0489 359.7091 320.7726 334.5427 62.0006 263.1614 346.2090 342.7210 359.8905 12.2646 2.7774 358.5228 14.8624 2.5236 339.1852 345.1439 9.4301 326.2827 316.0325 352.0225 27.7195 44.9503 3.6357 352.6771 341.5806 312.6566 
-7.7315 83.2531 64.9960 353.9746 344.1405 198.6918 2.1292 348.1014 357.2340 0.6419 21.4068 356.8883 343.1767 344.5075 350.5815 3.9992 5.6786 352.6788 337.8965 357.1881 14.5664 340.2294 59.7271 318.5436 24.6314 341.5781 289.5630 98.8337 348.3812 359.5857 25.9799 356.0150 343.2286 50.4223 45.7236 0.6788 319.5129 334.8431 59.8816 263.1591 346.0360 341.9080 0.0183 11.5091 2.7964 358.6418 16.4634 2.7735 339.9630 346.2916 9.7725 326.8304 316.5614 352.0265 27.4000 45.3294 4.5423 351.9651 341.1680 311.8947 
